<?xml version="1.0" encoding="utf-8"?>
<!DOCTYPE svg PUBLIC "-//W3C//DTD SVG 1.1//EN" "http://www.w3.org/Graphics/SVG/1.1/DTD/svg11.dtd">
<svg version="1.1" id="Shell" xmlns="http://www.w3.org/2000/svg" xmlns:xlink="http://www.w3.org/1999/xlink" x="0px" y="0px"
    width="149.167px" height="172.243px" viewBox="0 0 149.167 172.243" enable-background="new 0 0 149.167 172.243"
    xml:space="preserve">
    <path fill="#FF5733" d="M74.583,0c-14.49,0-27.818,7.619-36.201,20.665C30.475,26.231,27.167,36.936,27.167,47.802c0,19.349,16.009,35.159,35.649,35.159c12.775,0,24.04-5.032,32.212-13.618c8.17-8.578,12.542-19.798,12.542-31.342c0-10.861-6.637-19.98-16.032-27.134C102.557,7.61,88.31,0,74.583,0z M74.583,56.335c-14.204,0-25.651-11.447-25.651-25.651c0-14.204,11.447-25.651,25.651-25.651c14.204,0,25.651,11.447,25.651,25.651C100.234,44.888,88.787,56.335,74.583,56.335z"/>
</svg>

